<?xml version="1.0" encoding="UTF-8" standalone="no"?>
<!-- Created with Inkscape (http://www.inkscape.org/) -->

<svg
   xmlns:dc="http://purl.org/dc/elements/1.1/"
   xmlns:cc="http://creativecommons.org/ns#"
   xmlns:rdf="http://www.w3.org/1999/02/22-rdf-syntax-ns#"
   xmlns:svg="http://www.w3.org/2000/svg"
   xmlns="http://www.w3.org/2000/svg"
   xmlns:sodipodi="http://sodipodi.sourceforge.net/DTD/sodipodi-0.dtd"
   xmlns:inkscape="http://www.inkscape.org/namespaces/inkscape"
   width="512"
   height="512"
   id="svg2"
   version="1.1"
   inkscape:version="0.48.4 r9939"
   sodipodi:docname="QCrypToolLogo.svg"
   inkscape:export-filename="C:\Users\flomar\Projects\QCrypTool\trunk\QCrypToolLogo-256x256.png"
   inkscape:export-xdpi="45"
   inkscape:export-ydpi="45">
  <defs
     id="defs4" />
  <sodipodi:namedview
     id="base"
     pagecolor="#ffffff"
     bordercolor="#666666"
     borderopacity="1.0"
     inkscape:pageopacity="0.0"
     inkscape:pageshadow="2"
     inkscape:zoom="0.7"
     inkscape:cx="209.49388"
     inkscape:cy="246.03634"
     inkscape:document-units="px"
     inkscape:current-layer="layer1"
     showgrid="false"
     inkscape:showpageshadow="false"
     inkscape:window-width="1024"
     inkscape:window-height="706"
     inkscape:window-x="-8"
     inkscape:window-y="-8"
     inkscape:window-maximized="1" />
  <metadata
     id="metadata7">
    <rdf:RDF>
      <cc:Work
         rdf:about="">
        <dc:format>image/svg+xml</dc:format>
        <dc:type
           rdf:resource="http://purl.org/dc/dcmitype/StillImage" />
        <dc:title></dc:title>
      </cc:Work>
    </rdf:RDF>
  </metadata>
  <g
     inkscape:label="Layer 1"
     inkscape:groupmode="layer"
     id="layer1"
     transform="translate(0,-540.36218)">
    <rect
       style="fill:#41c850;fill-opacity:1;stroke:none"
       id="rect3780"
       width="512"
       height="512"
       x="0"
       y="540.36218" />
    <path
       style="fill:#000000;fill-opacity:1;stroke:none"
       d="M 256,572.36217 C 132.28822,572.36217 32,672.65039 32,796.36217 32,920.07396 132.28822,1020.3622 256,1020.3622 311.54694,1020.3622 362.35153,1000.1108 401.49609,966.6317 L 455.22656,1020.3622 480,995.5887 426.26953,941.85826 C 459.74863,902.7137 480,851.90911 480,796.36217 480,672.65039 379.71178,572.36217 256,572.36217 z M 256,607.36217 C 360.38183,607.36217 445,691.98035 445,796.36217 445,842.24561 428.66086,884.32019 401.46875,917.05749 L 280.77344,796.36217 327.77735,749.33093 303.03125,724.58483 184.22265,843.39343 208.96875,868.13952 256,821.13561 376.69532,941.83093 C 343.95801,969.02303 301.88344,985.3622 256,985.3622 151.61817,985.3622 67,900.744 67,796.36217 67,691.98035 151.61817,607.36217 256,607.36217 z M 256,621.36217 C 159.35017,621.36217 81,699.71234 81,796.36217 81,893.012 159.35017,971.36217 256,971.36217 286.74841,971.36217 315.65527,963.44121 340.76562,949.51452 L 314.73438,923.48326 C 296.87279,931.74991 276.97549,936.36217 256,936.36217 178.68014,936.36217 116,873.68203 116,796.36217 116,719.04231 178.68014,656.36217 256,656.36217 276.97549,656.36217 296.87279,660.97443 314.73438,669.24108 L 340.76562,643.20983 C 315.65527,629.28314 286.74841,621.36217 256,621.36217 z"
       id="path3753"
       inkscape:connector-curvature="0" />
  </g>
</svg>
