<?xml version="1.0" encoding="UTF-8" standalone="no"?>
<!-- Created with Inkscape (http://www.inkscape.org/) -->

<svg
   xmlns:dc="http://purl.org/dc/elements/1.1/"
   xmlns:cc="http://creativecommons.org/ns#"
   xmlns:rdf="http://www.w3.org/1999/02/22-rdf-syntax-ns#"
   xmlns:svg="http://www.w3.org/2000/svg"
   xmlns="http://www.w3.org/2000/svg"
   xmlns:sodipodi="http://sodipodi.sourceforge.net/DTD/sodipodi-0.dtd"
   xmlns:inkscape="http://www.inkscape.org/namespaces/inkscape"
   width="512"
   height="512"
   id="svg2"
   version="1.1"
   inkscape:version="0.48.4 r9939"
   sodipodi:docname="QCrypToolLogo.svg">
  <defs
     id="defs4" />
  <sodipodi:namedview
     id="base"
     pagecolor="#ffffff"
     bordercolor="#666666"
     borderopacity="1.0"
     inkscape:pageopacity="0.0"
     inkscape:pageshadow="2"
     inkscape:zoom="0.7"
     inkscape:cx="253.40078"
     inkscape:cy="246.03634"
     inkscape:document-units="px"
     inkscape:current-layer="layer1"
     showgrid="false"
     inkscape:showpageshadow="false"
     inkscape:window-width="1024"
     inkscape:window-height="706"
     inkscape:window-x="-8"
     inkscape:window-y="-8"
     inkscape:window-maximized="1" />
  <metadata
     id="metadata7">
    <rdf:RDF>
      <cc:Work
         rdf:about="">
        <dc:format>image/svg+xml</dc:format>
        <dc:type
           rdf:resource="http://purl.org/dc/dcmitype/StillImage" />
        <dc:title></dc:title>
      </cc:Work>
    </rdf:RDF>
  </metadata>
  <g
     inkscape:label="Layer 1"
     inkscape:groupmode="layer"
     id="layer1"
     transform="translate(0,-540.36218)">
    <path
       style="fill:#000000;fill-opacity:1;stroke:none"
       d="M 256 0 C 114.6151 0 -1.9028223e-017 114.6151 0 256 C 0 397.3849 114.6151 512 256 512 C 397.3849 512 512 397.3849 512 256 C 512 114.6151 397.3849 -7.7040751e-014 256 0 z M 256 40 C 375.29351 40 472 136.70649 472 256 C 472 375.29351 375.29351 472 256 472 C 136.70649 472 40 375.29351 40 256 C 40 136.70649 136.70649 40 256 40 z "
       transform="translate(0,540.36218)"
       id="path3753" />
    <path
       style="fill:#000000;fill-opacity:1;stroke:none"
       d="M 256 56 C 145.54305 56 56 145.54305 56 256 C 56 366.45695 145.54305 456 256 456 C 291.14103 456 324.17745 446.94747 352.875 431.03125 L 323.125 401.28125 C 302.71176 410.72884 279.97199 416 256 416 C 167.63444 416 96 344.36556 96 256 C 96 167.63444 167.63444 96 256 96 C 279.97199 96 302.71176 101.27116 323.125 110.71875 L 352.875 80.96875 C 324.17745 65.052533 291.14103 56 256 56 z "
       transform="translate(0,540.36218)"
       id="path3757" />
    <path
       style="fill:#000000;fill-opacity:1;stroke:none"
       d="M 309.75,173.96875 173.96875,309.75 202.25,338.03125 256,284.3125 483.6875,512 512,483.6875 284.3125,256 338.03125,202.25 z"
       transform="translate(0,540.36218)"
       id="rect3806"
       inkscape:connector-curvature="0"
       sodipodi:nodetypes="ccccccccc" />
  </g>
</svg>
